<?xml version="1.0" encoding="utf-8"?>
<!-- Generator: Adobe Illustrator 21.1.0, SVG Export Plug-In . SVG Version: 6.00 Build 0)  -->
<svg version="1.1" id="Capa_1" xmlns="http://www.w3.org/2000/svg" xmlns:xlink="http://www.w3.org/1999/xlink" x="0px" y="0px"
	 viewBox="0 0 100 100" style="enable-background:new 0 0 100 100;" xml:space="preserve">
<style type="text/css">
	.st0{fill:#465FAD;}
</style>
<g>
	<g>
		<g>
			<path class="st0" d="M81.9,100c-3.1,0-5-2.5-5-5.7V66.1c0-3.1,1.9-5.7,5-5.7c3.1,0,5,2.5,5,5.7v28.2C86.9,97.5,85.1,100,81.9,100
				z"/>
		</g>
		<g>
			<path class="st0" d="M81.9,47.8c-3.1,0-5-2.5-5-5.7V5.7c0-3.1,1.9-5.7,5-5.7c3.1,0,5,2.5,5,5.7v36.4
				C86.9,45.2,85.1,47.8,81.9,47.8z"/>
		</g>
		<g>
			<path class="st0" d="M81.8,70.1c-9.2,0-16.8-7.5-16.8-16.8s7.5-16.8,16.8-16.8c9.2,0,16.8,7.5,16.8,16.8S91.1,70.1,81.8,70.1z
				 M81.8,48c-3,0-5.4,2.4-5.4,5.4c0,3,2.4,5.4,5.4,5.4c3,0,5.4-2.4,5.4-5.4C87.2,50.4,84.8,48,81.8,48z"/>
		</g>
	</g>
	<g>
		<g>
			<path class="st0" d="M49.8,100c-3.1,0-5.7-2.5-5.7-5.7v-6.8c0-3.1,2.6-5.7,5.7-5.7s5.7,2.5,5.7,5.7v6.8
				C55.5,97.5,52.9,100,49.8,100z"/>
		</g>
		<g>
			<path class="st0" d="M49.8,69.7c-3.1,0-5.7-2.5-5.7-5.7V5.7C44,2.5,46.6,0,49.8,0s5.7,2.5,5.7,5.7V64
				C55.5,67.2,52.9,69.7,49.8,69.7z"/>
		</g>
		<g>
			<path class="st0" d="M50,92.3c-9.2,0-16.8-7.5-16.8-16.8S40.8,58.8,50,58.8c9.2,0,16.8,7.5,16.8,16.8S59.2,92.3,50,92.3z
				 M50,70.1c-3,0-5.4,2.4-5.4,5.4s2.4,5.4,5.4,5.4c3,0,5.4-2.4,5.4-5.4S53,70.1,50,70.1z"/>
		</g>
	</g>
	<g>
		<g>
			<path class="st0" d="M18.3,20c-3.1,0-5.7-2.5-5.7-5.7V5.7c0-3.1,2.6-5.7,5.7-5.7S24,2.5,24,5.7v8.6C24,17.4,21.5,20,18.3,20z"/>
		</g>
		<g>
			<path class="st0" d="M18.3,100c-3.1,0-5.7-2.5-5.7-5.7V39.5c0-3.1,2.6-5.7,5.7-5.7s5.7,2.5,5.7,5.7v54.9
				C24,97.5,21.5,100,18.3,100z"/>
		</g>
		<g>
			<path class="st0" d="M18.2,43.2c-9.2,0-16.8-7.5-16.8-16.8c0-9.2,7.5-16.8,16.8-16.8s16.8,7.5,16.8,16.8
				C34.9,35.6,27.4,43.2,18.2,43.2z M18.2,21c-3,0-5.4,2.4-5.4,5.4c0,3,2.4,5.4,5.4,5.4s5.4-2.4,5.4-5.4C23.6,23.4,21.2,21,18.2,21z
				"/>
		</g>
	</g>
</g>
</svg>
