<?xml version="1.0" encoding="utf-8"?>
<!-- Generator: Adobe Illustrator 21.1.0, SVG Export Plug-In . SVG Version: 6.00 Build 0)  -->
<svg version="1.1" id="Capa_1" xmlns="http://www.w3.org/2000/svg" xmlns:xlink="http://www.w3.org/1999/xlink" x="0px" y="0px"
	 viewBox="0 0 100.1 100" style="enable-background:new 0 0 100.1 100;" xml:space="preserve">
<style type="text/css">
	.st0{fill:#365FB2;}
</style>
<path class="st0" d="M99.3,90L56.1,3.7c-2.5-5-9.6-5-12.1,0L0.7,90c-2.3,4.5,1,9.8,6.1,9.8h86.5C98.3,99.8,101.6,94.5,99.3,90z
	 M14.2,87.1L50,15.5l35.9,71.5H14.2z"/>
<g>
	<g>
		<path class="st0" d="M50,69c-2.9,0-5.2-2.4-5.2-5.2l0-25.8c0-2.9,2.4-5.2,5.2-5.2c2.9,0,5.2,2.4,5.2,5.2l0,25.8
			C55.2,66.7,52.8,69,50,69z"/>
	</g>
	<g>
		<path class="st0" d="M50.1,81.8c-0.3,0-0.7,0-1-0.1c-0.3-0.1-0.7-0.2-1-0.3c-0.3-0.1-0.6-0.3-0.9-0.5c-0.3-0.2-0.5-0.4-0.8-0.7
			c-0.2-0.2-0.5-0.5-0.6-0.8c-0.2-0.3-0.3-0.6-0.5-0.9c-0.1-0.3-0.2-0.6-0.3-1c-0.1-0.3-0.1-0.7-0.1-1c0-0.3,0-0.7,0.1-1
			s0.2-0.7,0.3-1c0.1-0.3,0.3-0.6,0.5-0.9c0.2-0.3,0.4-0.6,0.6-0.8c0.2-0.2,0.5-0.5,0.8-0.6c0.3-0.2,0.6-0.4,0.9-0.5
			c0.3-0.1,0.6-0.2,1-0.3c0.7-0.1,1.4-0.1,2,0c0.3,0.1,0.7,0.2,1,0.3c0.3,0.1,0.6,0.3,0.9,0.5c0.3,0.2,0.5,0.4,0.8,0.6
			c0.2,0.2,0.5,0.5,0.6,0.8c0.2,0.3,0.3,0.6,0.5,0.9c0.1,0.3,0.2,0.6,0.3,1c0.1,0.3,0.1,0.7,0.1,1c0,1.4-0.6,2.7-1.5,3.7
			C52.8,81.3,51.5,81.8,50.1,81.8z"/>
	</g>
</g>
</svg>
