<?xml version="1.0" encoding="utf-8"?>
<!-- Generator: Adobe Illustrator 21.1.0, SVG Export Plug-In . SVG Version: 6.00 Build 0)  -->
<svg version="1.1" id="Capa_1" xmlns="http://www.w3.org/2000/svg" xmlns:xlink="http://www.w3.org/1999/xlink" x="0px" y="0px"
	 viewBox="0 0 100 100" style="enable-background:new 0 0 100 100;" xml:space="preserve">
<style type="text/css">
	.st0{fill:#465FAD;}
</style>
<g>
	<path class="st0" d="M94.6,0H21.8c-2.8,0-5.1,2.3-5.1,5.1v11.8H5.4c-2.8,0-5.1,2.3-5.1,5.1v72.8c0,2.8,2.3,5.1,5.1,5.1h72.8
		c2.8,0,5.1-2.3,5.1-5.1V83.1h11.3c2.8,0,5.1-2.3,5.1-5.1V62.1v0V5.1C99.7,2.3,97.4,0,94.6,0z M26.9,72.8v-21l13.3-13.5L61.7,60
		c1.9,1.9,5.4,1.9,7.3,0l4.1-4.1l4.1-4.1l6.1,6.2l6.2,6.2v8.7h-6.2H73.1H26.9z M83.3,43.4l-2.5-2.5c-1.9-1.9-5.4-1.9-7.3,0l-0.5,0.5
		l-7.7,7.8L43.9,27.5c-0.1-0.1-0.2-0.2-0.4-0.3c-1.9-1.5-4.7-1.5-6.6,0c-0.1,0.1-0.2,0.2-0.4,0.3l-9.7,9.8V27.2V16.9v-6.7h62.6v39.3
		L83.3,43.4z M73.1,89.7H10.5V27.2h6.2v22.5v0v28.2c0,2.8,2.3,5.1,5.1,5.1h51.3V89.7z"/>
	<path class="st0" d="M77.9,16.9c-1.1-0.8-2.5-1.3-4-1.3c-1.5,0-2.9,0.5-4,1.3c-1.6,1.2-2.7,3.1-2.7,5.3c0,2,0.9,3.7,2.2,4.9
		c1,0.9,2.2,1.5,3.5,1.6c0.3,0,0.6,0.1,0.9,0.1c3.7,0,6.6-3,6.6-6.6C80.6,20.1,79.5,18.1,77.9,16.9z"/>
</g>
</svg>
