<?xml version="1.0" encoding="utf-8"?>
<!-- Generator: Adobe Illustrator 21.1.0, SVG Export Plug-In . SVG Version: 6.00 Build 0)  -->
<svg version="1.1" id="Capa_1" xmlns="http://www.w3.org/2000/svg" xmlns:xlink="http://www.w3.org/1999/xlink" x="0px" y="0px"
	 viewBox="0 0 156.8 100" style="enable-background:new 0 0 156.8 100;" xml:space="preserve">
<style type="text/css">
	.st0{fill:url(#SVGID_1_);}
	.st1{fill:url(#SVGID_2_);}
	.st2{fill:url(#SVGID_3_);}
	.st3{fill:url(#SVGID_4_);}
</style>
<g>
	<linearGradient id="SVGID_1_" gradientUnits="userSpaceOnUse" x1="95.2647" y1="54.5601" x2="119.8702" y2="29.9546">
		<stop  offset="0" style="stop-color:#27179C"/>
		<stop  offset="1" style="stop-color:#7E18C9"/>
	</linearGradient>
	<path class="st0" d="M125,35.1H99.5v23.7h6.8C108.8,48.5,115.8,39.9,125,35.1z"/>
	<linearGradient id="SVGID_2_" gradientUnits="userSpaceOnUse" x1="104.8441" y1="29.0433" x2="141.8935" y2="-8.006">
		<stop  offset="0" style="stop-color:#27179C"/>
		<stop  offset="1" style="stop-color:#7E18C9"/>
	</linearGradient>
	<path class="st1" d="M99.5,11.8v11.8H145c6.5,0,11.8-5.3,11.8-11.8S151.5,0,145,0H94.2C97.5,3,99.5,7.2,99.5,11.8z"/>
	<linearGradient id="SVGID_3_" gradientUnits="userSpaceOnUse" x1="116.6685" y1="88.3558" x2="158.2825" y2="46.7418">
		<stop  offset="0" style="stop-color:#4636BA"/>
		<stop  offset="1" style="stop-color:#8E36CE"/>
	</linearGradient>
	<path class="st2" d="M141.7,58.8c6.5,0,11.8-5.3,11.8-11.8s-5.3-11.8-11.8-11.8c-14.9,0-27.4,10-31.2,23.7
		c-0.8,2.8-1.2,5.7-1.2,8.8c0,17.9,14.6,32.5,32.5,32.5c6.5,0,11.8-5.3,11.8-11.8s-5.3-11.8-11.8-11.8c-4.8,0-8.8-3.9-8.8-8.8
		S136.9,58.8,141.7,58.8z"/>
	<linearGradient id="SVGID_4_" gradientUnits="userSpaceOnUse" x1="2.3243" y1="95.388" x2="93.0998" y2="4.6125">
		<stop  offset="0" style="stop-color:#4636BA"/>
		<stop  offset="1" style="stop-color:#8E36CE"/>
	</linearGradient>
	<path class="st3" d="M87.5,0.7C86.2,0.2,84.9,0,83.6,0c0,0,0,0,0,0c-0.1,0-0.2,0-0.3,0c-0.1,0-0.2,0-0.3,0c-0.1,0-0.2,0-0.2,0
		c-0.1,0-0.3,0-0.4,0c-0.1,0-0.1,0-0.2,0c-0.2,0-0.3,0-0.5,0.1c0,0-0.1,0-0.1,0c-0.2,0-0.3,0.1-0.5,0.1c0,0-0.1,0-0.1,0
		c-0.2,0-0.4,0.1-0.6,0.1c0,0,0,0-0.1,0c-0.2,0.1-0.4,0.1-0.6,0.2c0,0,0,0,0,0c-0.2,0.1-0.4,0.1-0.6,0.2c-0.6,0.2-1.2,0.5-1.7,0.9
		c0,0-0.1,0.1-0.1,0.1C77.1,1.9,77,2,76.9,2.1c-0.1,0-0.1,0.1-0.2,0.1c-0.1,0.1-0.2,0.2-0.3,0.2c-0.1,0.1-0.1,0.1-0.2,0.2
		c-0.1,0.1-0.2,0.2-0.3,0.2C75.8,2.9,75.7,3,75.7,3c-0.1,0.1-0.2,0.2-0.3,0.3c0,0-0.1,0.1-0.1,0.1c-0.1,0.1-0.3,0.3-0.4,0.5
		c0,0-0.1,0.1-0.1,0.1c-0.1,0.1-0.2,0.2-0.3,0.4c0,0,0,0,0,0.1L47.7,37.9L21.1,4.5C18.8,1.6,15.4,0,11.8,0c-1.3,0-2.6,0.2-3.9,0.7
		C3.2,2.3,0,6.8,0,11.8v76.3C0,94.7,5.3,100,11.8,100s11.8-5.3,11.8-11.8V45.7l14.8,18.5c2.2,2.8,5.7,4.5,9.3,4.5s7-1.6,9.3-4.5
		l14.8-18.5v42.4c0,6.5,5.3,11.8,11.8,11.8s11.8-5.3,11.8-11.8V58.8V35.1V23.7V11.8C95.4,6.8,92.2,2.3,87.5,0.7z"/>
</g>
</svg>
