<?xml version="1.0" encoding="utf-8"?>
<!-- Generator: Adobe Illustrator 21.1.0, SVG Export Plug-In . SVG Version: 6.00 Build 0)  -->
<svg version="1.1" id="Capa_1" xmlns="http://www.w3.org/2000/svg" xmlns:xlink="http://www.w3.org/1999/xlink" x="0px" y="0px"
	 viewBox="0 0 100 100" style="enable-background:new 0 0 100 100;" xml:space="preserve">
<style type="text/css">
	.st0{fill:#465FAD;}
</style>
<g>
	<g>
		<path class="st0" d="M84.2,100c-3.4,0-6.2-2.4-6.2-5.4V29.7c0-3,2.8-5.4,6.2-5.4c3.4,0,6.2,2.4,6.2,5.4v64.9
			C90.4,97.6,87.6,100,84.2,100z"/>
	</g>
	<g>
		<path class="st0" d="M60.2,100c-3.4,0-6.2-2.8-6.2-6.2V69.2c0-3.4,2.8-6.2,6.2-6.2c3.4,0,6.2,2.8,6.2,6.2v24.6
			C66.3,97.2,63.6,100,60.2,100z"/>
	</g>
	<g>
		<path class="st0" d="M36.1,100c-3.4,0-6.2-2.8-6.2-6.2V44.6c0-3.4,2.8-6.2,6.2-6.2c3.4,0,6.2,2.8,6.2,6.2v49.2
			C42.3,97.2,39.5,100,36.1,100z"/>
	</g>
	<g>
		<path class="st0" d="M12,100c-3.4,0-6.2-2.5-6.2-5.6V5.6C5.8,2.5,8.6,0,12,0c3.4,0,6.2,2.5,6.2,5.6v88.9
			C18.2,97.5,15.4,100,12,100z"/>
	</g>
</g>
</svg>
