<?xml version="1.0" encoding="utf-8"?>
<!-- Generator: Adobe Illustrator 21.1.0, SVG Export Plug-In . SVG Version: 6.00 Build 0)  -->
<svg version="1.1" id="Capa_1" xmlns="http://www.w3.org/2000/svg" xmlns:xlink="http://www.w3.org/1999/xlink" x="0px" y="0px"
	 viewBox="0 0 100 100" style="enable-background:new 0 0 100 100;" xml:space="preserve">
<style type="text/css">
	.st0{fill:#465FAD;}
</style>
<g>
	<g>
		<path class="st0" d="M94.3,100H5.7c-2.9,0-5.3-2.4-5.3-5.3V13.8c0-2.9,2.4-5.3,5.3-5.3h88.7c2.9,0,5.3,2.4,5.3,5.3v80.9
			C99.6,97.6,97.3,100,94.3,100z M11,89.4h78V19.1H11V89.4z"/>
	</g>
	<g>
		<g>
			<path class="st0" d="M19.8,31.9c-2.9,0-5.4-2.4-5.4-5.3V5.3c0-2.9,2.4-5.3,5.4-5.3s5.4,2.4,5.4,5.3v21.3
				C25.1,29.5,22.7,31.9,19.8,31.9z"/>
		</g>
		<g>
			<path class="st0" d="M39.8,31.9c-2.9,0-5.4-2.4-5.4-5.3V5.3c0-2.9,2.4-5.3,5.4-5.3s5.4,2.4,5.4,5.3v21.3
				C45.2,29.5,42.8,31.9,39.8,31.9z"/>
		</g>
		<g>
			<path class="st0" d="M58.6,31.9c-2.9,0-5.4-2.4-5.4-5.3V5.3c0-2.9,2.4-5.3,5.4-5.3s5.4,2.4,5.4,5.3v21.3
				C63.9,29.5,61.5,31.9,58.6,31.9z"/>
		</g>
		<g>
			<path class="st0" d="M77.3,31.9c-2.9,0-5.4-2.4-5.4-5.3V5.3c0-2.9,2.4-5.3,5.4-5.3c2.9,0,5.4,2.4,5.4,5.3v21.3
				C82.6,29.5,80.2,31.9,77.3,31.9z"/>
		</g>
	</g>
	<g>
		<path class="st0" d="M75.5,60.7H24.5c-2.9,0-5.3-1.7-5.3-4.7s2.4-4.7,5.3-4.7h51.1c2.9,0,5.3,1.7,5.3,4.7S78.5,60.7,75.5,60.7z"/>
	</g>
	<g>
		<path class="st0" d="M75.5,80.7H24.5c-2.9,0-5.3-2.4-5.3-5.4c0-2.9,2.4-5.4,5.3-5.4h51.1c2.9,0,5.3,2.4,5.3,5.4
			C80.9,78.3,78.5,80.7,75.5,80.7z"/>
	</g>
</g>
</svg>
