<?xml version="1.0" encoding="utf-8"?>
<!-- Generator: Adobe Illustrator 21.1.0, SVG Export Plug-In . SVG Version: 6.00 Build 0)  -->
<svg version="1.1" id="Capa_1" xmlns="http://www.w3.org/2000/svg" xmlns:xlink="http://www.w3.org/1999/xlink" x="0px" y="0px"
	 viewBox="0 0 153.7 100" style="enable-background:new 0 0 153.7 100;" xml:space="preserve">
<style type="text/css">
	.st0{fill:#7C7F8E;}
	.st1{fill:#83E9B6;}
	.st2{fill:#E8DE51;}
	.st3{fill:#555555;}
</style>
<g>
	<g>
		<path class="st0" d="M121.6,87H6.4C2.9,87,0,84.2,0,80.6V6.4C0,2.9,2.9,0,6.4,0h115.2c3.5,0,6.4,2.9,6.4,6.4v74.2
			C128,84.2,125.1,87,121.6,87z M12.8,74.2h102.4V12.8H12.8V74.2z"/>
	</g>
	<g>
		<path class="st1" d="M64,62.4c-10.4,0-18.9-8.5-18.9-18.9S53.6,24.6,64,24.6c10.4,0,18.9,8.5,18.9,18.9S74.4,62.4,64,62.4z
			 M64,37.4c-3.4,0-6.1,2.7-6.1,6.1c0,3.4,2.7,6.1,6.1,6.1c3.4,0,6.1-2.7,6.1-6.1C70.1,40.2,67.3,37.4,64,37.4z"/>
	</g>
	<g>
		<g>
			<g>
				<path class="st0" d="M118.7,34.4C104,34.4,92,22.4,92,7.6c0-3.5,2.9-6.4,6.4-6.4c3.5,0,6.4,2.9,6.4,6.4
					c0,7.7,6.2,13.9,13.9,13.9c3.5,0,6.4,2.9,6.4,6.4S122.3,34.4,118.7,34.4z"/>
			</g>
			<g>
				<path class="st0" d="M98.4,85.8c-3.5,0-6.4-2.9-6.4-6.4c0-14.7,12-26.7,26.7-26.7c3.5,0,6.4,2.9,6.4,6.4c0,3.5-2.9,6.4-6.4,6.4
					c-7.7,0-13.9,6.2-13.9,13.9C104.8,82.9,101.9,85.8,98.4,85.8z"/>
			</g>
		</g>
		<g>
			<g>
				<path class="st0" d="M29.6,85.8c-3.5,0-6.4-2.9-6.4-6.4c0-7.7-6.2-13.9-13.9-13.9c-3.5,0-6.4-2.9-6.4-6.4c0-3.5,2.9-6.4,6.4-6.4
					C24,52.7,36,64.7,36,79.4C36,82.9,33.1,85.8,29.6,85.8z"/>
			</g>
			<g>
				<path class="st0" d="M9.3,34.4c-3.5,0-6.4-2.9-6.4-6.4s2.9-6.4,6.4-6.4c7.7,0,13.9-6.2,13.9-13.9c0-3.5,2.9-6.4,6.4-6.4
					c3.5,0,6.4,2.9,6.4,6.4C36,22.4,24,34.4,9.3,34.4z"/>
			</g>
		</g>
	</g>
</g>
<g>
	<g>
		<g>
			<path class="st2" d="M150.7,100l-50.6-0.2c-1,0-2-0.5-2.5-1.4c-0.5-0.9-0.6-2-0.1-2.9L123,45.3c0.5-1,1.5-1.6,2.6-1.6
				c1.1,0,2.1,0.6,2.6,1.6l25.1,50.4c0.5,0.9,0.4,2-0.1,2.9C152.7,99.5,151.7,100,150.7,100z"/>
		</g>
	</g>
	<g>
		<g>
			<path class="st3" d="M126,84c-1.6,0-2.9-1.3-2.9-2.9l0.1-14.5c0-1.6,1.3-2.9,2.9-2.9c1.6,0,2.9,1.3,2.9,2.9L129,81.1
				C129,82.7,127.6,84,126,84z"/>
		</g>
		<g>
			<path class="st3" d="M126.1,91.2c-0.2,0-0.4,0-0.6,0c-0.2,0-0.4-0.1-0.5-0.2c-0.2-0.1-0.3-0.2-0.5-0.3c-0.2-0.1-0.3-0.2-0.4-0.4
				c-0.1-0.1-0.3-0.3-0.4-0.4c-0.1-0.2-0.2-0.3-0.3-0.5c-0.1-0.2-0.1-0.4-0.2-0.6c0-0.2-0.1-0.4-0.1-0.6c0-0.2,0-0.4,0.1-0.6
				c0-0.2,0.1-0.4,0.2-0.6c0.1-0.2,0.2-0.4,0.3-0.5c0.1-0.2,0.2-0.3,0.4-0.4c0.1-0.1,0.3-0.3,0.4-0.4c0.2-0.1,0.3-0.2,0.5-0.3
				c0.2-0.1,0.4-0.1,0.5-0.2c0.4-0.1,0.8-0.1,1.1,0c0.2,0,0.4,0.1,0.5,0.2c0.2,0.1,0.3,0.2,0.5,0.3c0.2,0.1,0.3,0.2,0.4,0.4
				c0.1,0.1,0.3,0.3,0.4,0.4c0.1,0.2,0.2,0.3,0.3,0.5c0.1,0.2,0.1,0.4,0.2,0.6c0,0.2,0.1,0.4,0.1,0.6c0,0.8-0.3,1.5-0.9,2.1
				C127.6,90.9,126.8,91.2,126.1,91.2z"/>
		</g>
	</g>
</g>
</svg>
