<?xml version="1.0" encoding="utf-8"?>
<!-- Generator: Adobe Illustrator 21.1.0, SVG Export Plug-In . SVG Version: 6.00 Build 0)  -->
<svg version="1.1" id="Capa_1" xmlns="http://www.w3.org/2000/svg" xmlns:xlink="http://www.w3.org/1999/xlink" x="0px" y="0px"
	 viewBox="0 0 147.1 100" style="enable-background:new 0 0 147.1 100;" xml:space="preserve">
<style type="text/css">
	.st0{fill:#7C7F8E;}
	.st1{fill:#83E9B6;}
</style>
<g>
	<g>
		<path class="st0" d="M139.7,100H7.4C3.3,100,0,96.7,0,92.6V7.4C0,3.3,3.3,0,7.4,0h132.4c4.1,0,7.4,3.3,7.4,7.4v85.3
			C147.1,96.7,143.8,100,139.7,100z M14.7,85.3h117.6V14.7H14.7V85.3z"/>
	</g>
	<g>
		<path class="st1" d="M73.5,71.7c-12,0-21.7-9.7-21.7-21.7s9.7-21.7,21.7-21.7c12,0,21.7,9.7,21.7,21.7S85.5,71.7,73.5,71.7z
			 M73.5,43c-3.9,0-7,3.1-7,7c0,3.9,3.1,7,7,7c3.9,0,7-3.1,7-7C80.5,46.1,77.4,43,73.5,43z"/>
	</g>
	<g>
		<g>
			<g>
				<path class="st0" d="M136.4,39.5c-16.9,0-30.7-13.8-30.7-30.7c0-4.1,3.3-7.4,7.4-7.4s7.4,3.3,7.4,7.4c0,8.8,7.2,16,16,16
					c4.1,0,7.4,3.3,7.4,7.4S140.5,39.5,136.4,39.5z"/>
			</g>
			<g>
				<path class="st0" d="M113.1,98.6c-4.1,0-7.4-3.3-7.4-7.4c0-16.9,13.8-30.7,30.7-30.7c4.1,0,7.4,3.3,7.4,7.4
					c0,4.1-3.3,7.4-7.4,7.4c-8.8,0-16,7.2-16,16C120.4,95.3,117.1,98.6,113.1,98.6z"/>
			</g>
		</g>
		<g>
			<g>
				<path class="st0" d="M34,98.6c-4.1,0-7.4-3.3-7.4-7.4c0-8.8-7.2-16-16-16c-4.1,0-7.4-3.3-7.4-7.4c0-4.1,3.3-7.4,7.4-7.4
					c16.9,0,30.7,13.8,30.7,30.7C41.3,95.3,38.1,98.6,34,98.6z"/>
			</g>
			<g>
				<path class="st0" d="M10.7,39.5c-4.1,0-7.4-3.3-7.4-7.4s3.3-7.4,7.4-7.4c8.8,0,16-7.2,16-16c0-4.1,3.3-7.4,7.4-7.4
					c4.1,0,7.4,3.3,7.4,7.4C41.3,25.7,27.6,39.5,10.7,39.5z"/>
			</g>
		</g>
	</g>
</g>
</svg>
