<?xml version="1.0" encoding="utf-8"?>
<!-- Generator: Adobe Illustrator 21.1.0, SVG Export Plug-In . SVG Version: 6.00 Build 0)  -->
<svg version="1.1" id="Capa_1" xmlns="http://www.w3.org/2000/svg" xmlns:xlink="http://www.w3.org/1999/xlink" x="0px" y="0px"
	 viewBox="0 0 125.1 100" style="enable-background:new 0 0 125.1 100;" xml:space="preserve">
<style type="text/css">
	.st0{fill:#83E9B6;}
	.st1{fill:#7C7F8E;}
</style>
<g>
	<path class="st0" d="M57.1,76.4H22.4l-7,18.6c-1.3,3.1-4.3,5-7.4,5c-1,0-1.9-0.1-2.7-0.4C1,98.1-1,93.5,0.5,89.3L32.1,5
		c1.3-3.1,4.4-5.2,7.6-5C43-0.1,46,1.9,47.3,5l31.6,84.3c1.4,4.2-0.6,8.7-4.7,10.3c-0.7,0.3-1.7,0.4-2.7,0.4c-3.1,0-6.2-1.9-7.3-5
		L57.1,76.4z M51.3,60.7L39.7,29.9L28.1,60.7H51.3z"/>
	<path class="st1" d="M125.1,64.4v28.1c0,4.2-3.4,7.6-7.6,7.6c-3.7,0-6.6-2.7-7.4-6.2c-5.4,3.9-11.9,6.2-19,6.2
		c-9.7,0-18.2-4-24.3-10.4C60.6,83,57,74.1,57,64.4c0-9.9,3.6-18.8,9.7-25.2c6.2-6.6,14.6-10.7,24.3-10.7c7.2,0,13.6,2.4,19,6.3
		c0.9-3.6,3.7-6.3,7.4-6.3c4.2,0,7.6,3.4,7.6,7.7V64.4z M110,64.4c0-6-2.1-11.2-5.6-14.7c-3.4-3.9-8.3-5.9-13.3-5.9
		c-5.2,0-10,2-13.3,5.9c-3.4,3.6-5.4,8.7-5.4,14.7c0,5.9,2,11,5.4,14.7c3.3,3.6,8.2,5.6,13.3,5.6c5,0,9.9-2,13.3-5.6
		C107.8,75.4,110,70.3,110,64.4z"/>
</g>
</svg>
