<?xml version="1.0" encoding="utf-8"?>
<!-- Generator: Adobe Illustrator 21.1.0, SVG Export Plug-In . SVG Version: 6.00 Build 0)  -->
<svg version="1.1" id="Capa_1" xmlns="http://www.w3.org/2000/svg" xmlns:xlink="http://www.w3.org/1999/xlink" x="0px" y="0px"
	 viewBox="0 0 139.5 100" style="enable-background:new 0 0 139.5 100;" xml:space="preserve">
<style type="text/css">
	.st0{fill:#83E9B6;}
	.st1{fill:#7C7F8E;}
	.st2{fill:#E7DD51;}
</style>
<g>
	<path class="st0" d="M51.7,69.2H20.2l-6.4,16.8c-1.2,2.9-3.9,4.5-6.7,4.5c-0.9,0-1.7-0.1-2.5-0.4c-3.8-1.4-5.6-5.6-4.3-9.3
		L29.1,4.5c1.2-2.9,4-4.7,6.9-4.5c3-0.1,5.7,1.7,6.9,4.5l28.6,76.3c1.3,3.8-0.5,7.9-4.3,9.3c-0.6,0.3-1.6,0.4-2.5,0.4
		c-2.9,0-5.6-1.7-6.6-4.5L51.7,69.2z M46.4,55L35.9,27.1L25.4,55H46.4z"/>
	<path class="st1" d="M113.3,58.3v25.4c0,3.8-3.1,6.9-6.9,6.9c-3.4,0-6-2.5-6.7-5.6c-4.9,3.5-10.8,5.6-17.2,5.6
		c-8.8,0-16.5-3.6-22-9.5c-5.6-6-8.8-14-8.8-22.8c0-8.9,3.2-17,8.8-22.8c5.6-6,13.2-9.7,22-9.7c6.5,0,12.3,2.2,17.2,5.7
		c0.8-3.2,3.4-5.7,6.7-5.7c3.8,0,6.9,3.1,6.9,7V58.3z M99.6,58.3c0-5.4-1.9-10.1-5.1-13.4c-3.1-3.5-7.5-5.3-12.1-5.3
		c-4.7,0-9.1,1.8-12.1,5.3c-3.1,3.2-4.9,7.9-4.9,13.4c0,5.3,1.8,10,4.9,13.4c3,3.2,7.4,5.1,12.1,5.1c4.5,0,8.9-1.8,12.1-5.1
		C97.6,68.3,99.6,63.6,99.6,58.3z"/>
</g>
<g>
	<g>
		<g>
			<path class="st2" d="M137.1,100l-41.6-0.2c-0.8,0-1.6-0.4-2-1.2C93,98,93,97.1,93.4,96.3l21-41.3c0.4-0.8,1.2-1.3,2.1-1.3
				c0.9,0,1.7,0.5,2.1,1.3l20.6,41.5c0.4,0.8,0.3,1.6-0.1,2.4C138.7,99.6,138,100,137.1,100z"/>
		</g>
	</g>
	<g>
		<g>
			<path class="st1" d="M116.8,86.9c-1.3,0-2.4-1.1-2.4-2.4l0-11.9c0-1.3,1.1-2.4,2.4-2.4s2.4,1.1,2.4,2.4l0,11.9
				C119.2,85.8,118.1,86.9,116.8,86.9z"/>
		</g>
		<g>
			<path class="st1" d="M116.8,92.8c-0.2,0-0.3,0-0.5,0c-0.2,0-0.3-0.1-0.4-0.1c-0.1-0.1-0.3-0.1-0.4-0.2c-0.1-0.1-0.2-0.2-0.4-0.3
				c-0.1-0.1-0.2-0.2-0.3-0.4c-0.1-0.1-0.2-0.3-0.2-0.4c-0.1-0.1-0.1-0.3-0.1-0.5c0-0.2,0-0.3,0-0.5c0-0.2,0-0.3,0-0.5
				c0-0.2,0.1-0.3,0.1-0.5c0.1-0.1,0.1-0.3,0.2-0.4c0.1-0.1,0.2-0.3,0.3-0.4c0.1-0.1,0.2-0.2,0.4-0.3c0.1-0.1,0.3-0.2,0.4-0.2
				c0.2-0.1,0.3-0.1,0.5-0.1c0.3-0.1,0.6-0.1,0.9,0c0.2,0,0.3,0.1,0.5,0.1c0.1,0.1,0.3,0.1,0.4,0.2c0.1,0.1,0.2,0.2,0.4,0.3
				c0.1,0.1,0.2,0.2,0.3,0.4c0.1,0.1,0.2,0.3,0.2,0.4c0.1,0.1,0.1,0.3,0.1,0.5c0,0.2,0,0.3,0,0.5c0,0.6-0.3,1.3-0.7,1.7
				C118.1,92.6,117.5,92.8,116.8,92.8z"/>
		</g>
	</g>
</g>
</svg>
