<?xml version="1.0" encoding="utf-8"?>
<!-- Generator: Adobe Illustrator 21.1.0, SVG Export Plug-In . SVG Version: 6.00 Build 0)  -->
<svg version="1.1" id="Capa_1" xmlns="http://www.w3.org/2000/svg" xmlns:xlink="http://www.w3.org/1999/xlink" x="0px" y="0px"
	 viewBox="0 0 100 100" style="enable-background:new 0 0 100 100;" xml:space="preserve">
<style type="text/css">
	.st0{fill:#7C7F8E;}
	.st1{fill:#83E9B6;}
</style>
<g>
	<g>
		<path class="st0" d="M50,100c-1.4,0-2.8-0.6-3.7-1.7C42.8,94.2,12,57.5,12,38C12,17,29.1,0,50,0c20.9,0,38,17,38,38
			c0,19.5-30.8,56.2-34.3,60.3C52.8,99.4,51.4,100,50,100z M50,9.7C34.4,9.7,21.7,22.4,21.7,38c0,11.9,17.9,36.7,28.3,49.6
			C60.3,74.7,78.3,49.9,78.3,38C78.3,22.4,65.6,9.7,50,9.7z"/>
	</g>
	<g>
		<path class="st1" d="M50,55.2c-9.4,0-17.1-7.7-17.1-17.1c0-9.4,7.7-17.1,17.1-17.1c9.4,0,17.1,7.7,17.1,17.1
			C67.1,47.6,59.4,55.2,50,55.2z M50,30.8c-4.1,0-7.4,3.3-7.4,7.4c0,4.1,3.3,7.4,7.4,7.4c4.1,0,7.4-3.3,7.4-7.4
			C57.4,34.1,54.1,30.8,50,30.8z"/>
	</g>
</g>
</svg>
