<?xml version="1.0" encoding="utf-8"?>
<!-- Generator: Adobe Illustrator 21.1.0, SVG Export Plug-In . SVG Version: 6.00 Build 0)  -->
<svg version="1.1" id="Capa_1" xmlns="http://www.w3.org/2000/svg" xmlns:xlink="http://www.w3.org/1999/xlink" x="0px" y="0px"
	 viewBox="0 0 100 100" style="enable-background:new 0 0 100 100;" xml:space="preserve">
<style type="text/css">
	.st0{fill:#7C7F8E;}
	.st1{fill:#83E9B6;}
	.st2{fill:#E8DE51;}
	.st3{fill:#555555;}
</style>
<g>
	<g>
		<path class="st0" d="M47.7,98.5c-1.4,0-2.7-0.6-3.6-1.7c-3.5-4.1-33.7-40.2-33.7-59.4C10.3,16.8,27.1,0,47.7,0
			c20.6,0,37.4,16.8,37.4,37.4c0,19.2-30.3,55.4-33.7,59.4C50.5,97.9,49.1,98.5,47.7,98.5z M47.7,9.6C32.4,9.6,19.9,22,19.9,37.4
			c0,11.7,17.6,36.1,27.8,48.8c10.2-12.7,27.8-37.1,27.8-48.8C75.6,22,63.1,9.6,47.7,9.6z"/>
	</g>
	<g>
		<path class="st1" d="M47.7,54.4c-9.3,0-16.8-7.5-16.8-16.8c0-9.3,7.5-16.8,16.8-16.8c9.3,0,16.8,7.5,16.8,16.8
			C64.5,46.8,57,54.4,47.7,54.4z M47.7,30.3c-4,0-7.3,3.3-7.3,7.3c0,4,3.3,7.3,7.3,7.3c4,0,7.3-3.3,7.3-7.3
			C55,33.6,51.7,30.3,47.7,30.3z"/>
	</g>
</g>
<g>
	<g>
		<g>
			<path class="st2" d="M87.3,100l-40.9-0.2c-0.8,0-1.6-0.4-2-1.1c-0.4-0.7-0.5-1.6-0.1-2.3l20.6-40.6c0.4-0.8,1.2-1.3,2.1-1.3
				c0.9,0,1.7,0.5,2.1,1.3l20.3,40.7c0.4,0.7,0.3,1.6-0.1,2.3C88.9,99.6,88.1,100,87.3,100z"/>
		</g>
	</g>
	<g>
		<g>
			<path class="st3" d="M67.3,87.1C66,87.1,65,86,65,84.7L65,73c0-1.3,1.1-2.4,2.4-2.4c1.3,0,2.4,1.1,2.4,2.4l0,11.7
				C69.7,86,68.6,87.1,67.3,87.1z"/>
		</g>
		<g>
			<path class="st3" d="M67.4,92.9c-0.2,0-0.3,0-0.5,0c-0.2,0-0.3-0.1-0.4-0.1c-0.1-0.1-0.3-0.1-0.4-0.2c-0.1-0.1-0.2-0.2-0.4-0.3
				c-0.1-0.1-0.2-0.2-0.3-0.4c-0.1-0.1-0.2-0.3-0.2-0.4c-0.1-0.1-0.1-0.3-0.1-0.4c0-0.2,0-0.3,0-0.5c0-0.2,0-0.3,0-0.5
				c0-0.2,0.1-0.3,0.1-0.4c0.1-0.1,0.1-0.3,0.2-0.4c0.1-0.1,0.2-0.3,0.3-0.4c0.1-0.1,0.2-0.2,0.4-0.3c0.1-0.1,0.3-0.2,0.4-0.2
				c0.2-0.1,0.3-0.1,0.4-0.1c0.3-0.1,0.6-0.1,0.9,0c0.2,0,0.3,0.1,0.4,0.1c0.1,0.1,0.3,0.1,0.4,0.2c0.1,0.1,0.2,0.2,0.4,0.3
				c0.1,0.1,0.2,0.2,0.3,0.4c0.1,0.1,0.2,0.3,0.2,0.4c0.1,0.1,0.1,0.3,0.1,0.4c0,0.2,0,0.3,0,0.5c0,0.6-0.3,1.2-0.7,1.7
				C68.6,92.7,68,92.9,67.4,92.9z"/>
		</g>
	</g>
</g>
</svg>
